<svg xmlns="http://www.w3.org/2000/svg" viewBox="0 0 440 500" font-family="-apple-system, 'Segoe UI', Roboto, sans-serif">
  <rect x="4" y="4" width="432" height="492" rx="10" fill="#f9fafb" stroke="#d1d5db"/>

  <!-- period bar -->
  <g font-size="13" font-weight="600">
    <text x="80" y="34" fill="#1f2937">Today</text>
    <rect x="72" y="40" width="52" height="2" fill="#2563eb"/>
    <text x="170" y="34" fill="#6b7280">Daily average</text>
    <text x="300" y="34" fill="#6b7280">All-time</text>
  </g>

  <!-- donut chart (stroke-dasharray on circle, r=70 => C≈439.8) -->
  <g transform="rotate(-90 220 160)">
    <circle cx="220" cy="160" r="70" fill="none" stroke="#ef4444" stroke-width="26"
            stroke-dasharray="180 259.8"/>
    <circle cx="220" cy="160" r="70" fill="none" stroke="#f97316" stroke-width="26"
            stroke-dasharray="80 359.8" stroke-dashoffset="-184"/>
    <circle cx="220" cy="160" r="70" fill="none" stroke="#eab308" stroke-width="26"
            stroke-dasharray="55 384.8" stroke-dashoffset="-268"/>
    <circle cx="220" cy="160" r="70" fill="none" stroke="#22c55e" stroke-width="26"
            stroke-dasharray="40 399.8" stroke-dashoffset="-327"/>
    <circle cx="220" cy="160" r="70" fill="none" stroke="#9ca3af" stroke-width="26"
            stroke-dasharray="65 374.8" stroke-dashoffset="-371"/>
  </g>
  <text x="220" y="158" font-size="20" font-weight="700" fill="#1f2937" text-anchor="middle">41.2 %</text>
  <text x="220" y="176" font-size="11" fill="#6b7280" text-anchor="middle">github.com</text>

  <!-- aggregate note -->
  <rect x="4" y="252" width="432" height="24" fill="#f3f4f6"/>
  <text x="220" y="268" font-size="10" fill="#6b7280" text-anchor="middle">Aggregate data since 2026-05-02 (64 days)</text>

  <!-- site list -->
  <g font-size="12">
    <rect x="18" y="290" width="10" height="10" rx="2" fill="#ef4444"/>
    <text x="38" y="299" fill="#1f2937">github.com</text>
    <text x="250" y="299" font-weight="600" fill="#1f2937">41.20 %</text>
    <text x="330" y="299" font-size="10" fill="#6b7280">02d 3h 12m 44s</text>
    <line x1="4" y1="308" x2="436" y2="308" stroke="#eef0f2"/>

    <rect x="18" y="320" width="10" height="10" rx="2" fill="#f97316"/>
    <text x="38" y="329" fill="#1f2937">youtube.com</text>
    <text x="250" y="329" font-weight="600" fill="#1f2937">18.31 %</text>
    <text x="330" y="329" font-size="10" fill="#6b7280">00d 22h 05m 09s</text>
    <line x1="4" y1="338" x2="436" y2="338" stroke="#eef0f2"/>

    <rect x="18" y="350" width="10" height="10" rx="2" fill="#eab308"/>
    <text x="38" y="359" fill="#1f2937">docs.google.com</text>
    <text x="250" y="359" font-weight="600" fill="#1f2937">12.58 %</text>
    <text x="330" y="359" font-size="10" fill="#6b7280">00d 15h 11m 30s</text>
    <line x1="4" y1="368" x2="436" y2="368" stroke="#eef0f2"/>

    <rect x="18" y="380" width="10" height="10" rx="2" fill="#22c55e"/>
    <text x="38" y="389" fill="#1f2937">stackoverflow.com</text>
    <text x="250" y="389" font-weight="600" fill="#1f2937">9.15 %</text>
    <text x="330" y="389" font-size="10" fill="#6b7280">00d 11h 02m 51s</text>
    <line x1="4" y1="398" x2="436" y2="398" stroke="#eef0f2"/>

    <rect x="18" y="410" width="10" height="10" rx="2" fill="#9ca3af"/>
    <text x="38" y="419" fill="#1f2937">others (57 sites)</text>
    <text x="250" y="419" font-weight="600" fill="#1f2937">14.88 %</text>
    <text x="330" y="419" font-size="10" fill="#6b7280">00d 17h 57m 18s</text>
    <line x1="4" y1="430" x2="436" y2="430" stroke="#e5e7eb" stroke-width="2"/>

    <text x="38" y="449" font-weight="700" fill="#1f2937">Total</text>
    <text x="250" y="449" font-weight="700" fill="#1f2937">100.00 %</text>
    <text x="330" y="449" font-size="10" fill="#6b7280">05d 21h 29m 32s</text>
  </g>

  <text x="18" y="478" font-size="11" font-weight="600" fill="#6b7280">▸ 📊 Overall stats</text>
</svg>
